<svg width="58" height="23" viewBox="0 0 58 23" fill="none" xmlns="http://www.w3.org/2000/svg">
<g clip-path="url(#clip0_40_3660)">
<g clip-path="url(#clip1_40_3660)">
<g clip-path="url(#clip2_40_3660)">
<path d="M10.4625 3.5249C11.0015 2.87353 11.3834 1.98632 11.3834 1.08789C11.3834 0.964355 11.3721 0.84082 11.3497 0.739746C10.4737 0.773437 9.41803 1.32373 8.78912 2.06494C8.29498 2.62646 7.83454 3.5249 7.83454 4.42334C7.83454 4.5581 7.857 4.69287 7.86823 4.73779C7.92438 4.74902 8.01422 4.76025 8.10407 4.76025C8.8902 4.76025 9.87848 4.23242 10.4625 3.5249ZM11.0802 4.95117C9.76618 4.95117 8.69928 5.74853 8.01422 5.74853C7.28424 5.74853 6.32965 4.99609 5.18414 4.99609C3.01666 4.99609 0.815491 6.79296 0.815491 10.1733C0.815491 12.2846 1.62409 14.5083 2.63483 15.9458C3.49957 17.1586 4.25202 18.1582 5.34137 18.1582C6.4195 18.1582 6.89118 17.4394 8.2276 17.4394C9.58649 17.4394 9.88971 18.1357 11.0802 18.1357C12.2593 18.1357 13.0455 17.0576 13.7867 15.9907C14.6177 14.7666 14.9659 13.5761 14.9771 13.52C14.9097 13.4975 12.6524 12.5766 12.6524 9.99365C12.6524 7.75878 14.4268 6.75927 14.5279 6.68066C13.3599 4.99609 11.5743 4.95117 11.0802 4.95117ZM21.4478 18.0346H24.3452V12.6777H27.9165C31.207 12.6777 33.4307 10.499 33.4307 7.26464V7.24218C33.4307 3.99658 31.207 1.8291 27.9165 1.8291H21.4478V18.0346ZM27.209 4.19873C29.2866 4.19873 30.4995 5.31054 30.4995 7.25341V7.27587C30.4995 9.21875 29.2866 10.3418 27.209 10.3418H24.3452V4.19873H27.209ZM38.0136 18.2368C39.6308 18.2368 40.9336 17.5405 41.6074 16.3501H41.7983V18.0346H44.561V9.6455C44.561 7.05127 42.7866 5.52392 39.6308 5.52392C36.7109 5.52392 34.7343 6.89404 34.4648 8.96045L34.4536 9.06152H37.0927L37.104 9.0166C37.3847 8.208 38.2158 7.74755 39.4961 7.74755C41.0009 7.74755 41.7983 8.42138 41.7983 9.6455V10.7011L38.6425 10.892C35.6552 11.0717 33.9819 12.352 33.9819 14.5419V14.5644C33.9819 16.7993 35.6777 18.2368 38.0136 18.2368ZM36.7446 14.4296V14.4072C36.7446 13.3964 37.4746 12.8237 39.0356 12.7226L41.7983 12.5429V13.5312C41.7983 14.9912 40.5517 16.0918 38.8671 16.0918C37.6318 16.0918 36.7446 15.4741 36.7446 14.4296ZM47.6279 22.3471C50.3456 22.3471 51.7494 21.3701 52.8051 18.2929L57.2074 5.75976H54.2651L51.4125 15.3505H51.1991L48.3354 5.75976H45.2807L49.6718 18.0459L49.5258 18.6074C49.2226 19.7192 48.5375 20.1909 47.392 20.1909C47.1 20.1909 46.7856 20.1796 46.561 20.1572V22.3022C46.8979 22.3359 47.2909 22.3471 47.6279 22.3471Z" fill="#CBCBCB"/>
</g>
</g>
</g>
<defs>
<clipPath id="clip0_40_3660">
<rect width="58" height="23" fill="white"/>
</clipPath>
<clipPath id="clip1_40_3660">
<rect width="58" height="23" fill="white"/>
</clipPath>
<clipPath id="clip2_40_3660">
<rect width="58" height="23" fill="white"/>
</clipPath>
</defs>
</svg>
