<svg width="57" height="22" viewBox="0 0 57 22" fill="none" xmlns="http://www.w3.org/2000/svg">
<g clip-path="url(#clip0_40_3675)">
<g clip-path="url(#clip1_40_3675)">
<g clip-path="url(#clip2_40_3675)">
<path d="M26.277 10.5041V16.9721H24.2104V1H29.6889C31.0774 1 32.2613 1.4597 33.23 2.37912C34.2202 3.29853 34.7153 4.42106 34.7153 5.74673C34.7153 7.10446 34.2202 8.227 33.23 9.13572C32.2721 10.0444 31.0881 10.4934 29.6889 10.4934H26.277V10.5041ZM26.277 2.96711V8.53703H29.732C30.55 8.53703 31.2388 8.25907 31.777 7.71384C32.3259 7.16861 32.6057 6.50577 32.6057 5.75742C32.6057 5.01975 32.3259 4.36761 31.777 3.82238C31.2388 3.25576 30.5607 2.9778 29.732 2.9778H26.277V2.96711Z" fill="#CBCBCB"/>
<path d="M40.1183 5.68213C41.6466 5.68213 42.8521 6.08838 43.7347 6.90089C44.6173 7.71339 45.0586 8.82524 45.0586 10.2365V16.9717H43.0889V15.4536H43.0028C42.1525 16.7044 41.0116 17.3245 39.5909 17.3245C38.3746 17.3245 37.3629 16.9717 36.5449 16.2554C35.7269 15.5391 35.3179 14.6518 35.3179 13.5827C35.3179 12.4495 35.7484 11.5514 36.6095 10.8886C37.4705 10.2151 38.6222 9.88363 40.0537 9.88363C41.2807 9.88363 42.2924 10.1082 43.0782 10.5572V10.0868C43.0782 9.37047 42.7983 8.77178 42.2279 8.26931C41.6574 7.76684 40.9901 7.52095 40.2259 7.52095C39.0742 7.52095 38.1594 8.00204 37.492 8.97491L35.6731 7.84168C36.674 6.39842 38.1594 5.68213 40.1183 5.68213ZM37.449 13.6148C37.449 14.1493 37.675 14.5983 38.1378 14.9511C38.5899 15.3039 39.1281 15.4857 39.7416 15.4857C40.6134 15.4857 41.3883 15.1649 42.0664 14.5235C42.7445 13.882 43.0889 13.1337 43.0889 12.2677C42.4431 11.7653 41.5498 11.5087 40.3981 11.5087C39.5586 11.5087 38.859 11.7118 38.2993 12.1074C37.7288 12.5243 37.449 13.0268 37.449 13.6148Z" fill="#CBCBCB"/>
<path d="M56.2954 6.03467L49.407 21.7716H47.2758L49.8375 16.2658L45.2954 6.03467H47.5449L50.8169 13.8818H50.86L54.0459 6.03467H56.2954Z" fill="#CBCBCB"/>
<path d="M18.0532 9.5929C18.0532 8.92365 17.9929 8.28327 17.881 7.66748H9.21875V11.1955L14.2075 11.1965C14.0051 12.3704 13.354 13.371 12.3562 14.0381V16.3271H15.3258C17.0597 14.7331 18.0532 12.3768 18.0532 9.5929Z" fill="#4285F4"/>
<path d="M12.3577 14.0392C11.5311 14.593 10.4666 14.917 9.22127 14.917C6.81569 14.917 4.77499 13.3069 4.04416 11.1367H0.980957V13.4972C2.49857 16.4885 5.61775 18.5412 9.22127 18.5412C11.7119 18.5412 13.8042 17.7276 15.3272 16.3271L12.3577 14.0392Z" fill="#34A853"/>
<path d="M3.75528 9.38473C3.75528 8.77535 3.85753 8.18629 4.04373 7.63251V5.27197H0.980527C0.353032 6.5089 0 7.90512 0 9.38473C0 10.8643 0.354108 12.2605 0.980527 13.4975L4.04373 11.1369C3.85753 10.5831 3.75528 9.99411 3.75528 9.38473Z" fill="#FABB05"/>
<path d="M9.22127 3.85222C10.5807 3.85222 11.798 4.31727 12.7591 5.22599L15.3907 2.61422C13.7924 1.13568 11.7086 0.228027 9.22127 0.228027C5.61882 0.228027 2.49857 2.28067 0.980957 5.27196L4.04417 7.6325C4.77499 5.46226 6.81569 3.85222 9.22127 3.85222Z" fill="#E94235"/>
</g>
</g>
</g>
<defs>
<clipPath id="clip0_40_3675">
<rect width="57" height="22" fill="white"/>
</clipPath>
<clipPath id="clip1_40_3675">
<rect width="57" height="22" fill="white"/>
</clipPath>
<clipPath id="clip2_40_3675">
<rect width="57" height="22" fill="white"/>
</clipPath>
</defs>
</svg>
