<svg width="1001" height="122" viewBox="0 0 1001 122" fill="none" xmlns="http://www.w3.org/2000/svg">
<path d="M61.44 121.92C52.5867 121.92 44.3733 120.48 36.8 117.6C29.3333 114.72 22.8267 110.667 17.28 105.44C11.84 100.213 7.57334 94.08 4.48001 87.04C1.49334 80 9.89437e-06 72.32 9.89437e-06 64C9.89437e-06 55.68 1.49334 48 4.48001 40.96C7.57334 33.92 11.8933 27.7867 17.44 22.56C22.9867 17.3333 29.4933 13.28 36.96 10.4C44.4267 7.52 52.5333 6.08 61.28 6.08C70.1333 6.08 78.24 7.52 85.6 10.4C93.0667 13.28 99.52 17.3333 104.96 22.56C110.507 27.7867 114.827 33.92 117.92 40.96C121.013 47.8933 122.56 55.5733 122.56 64C122.56 72.32 121.013 80.0533 117.92 87.2C114.827 94.24 110.507 100.373 104.96 105.6C99.52 110.72 93.0667 114.72 85.6 117.6C78.24 120.48 70.1867 121.92 61.44 121.92ZM61.28 99.84C66.2933 99.84 70.88 98.9867 75.04 97.28C79.3067 95.5733 83.04 93.12 86.24 89.92C89.44 86.72 91.8933 82.9333 93.6 78.56C95.4133 74.1867 96.32 69.3333 96.32 64C96.32 58.6667 95.4133 53.8133 93.6 49.44C91.8933 45.0667 89.44 41.28 86.24 38.08C83.1467 34.88 79.4667 32.4267 75.2 30.72C70.9333 29.0133 66.2933 28.16 61.28 28.16C56.2667 28.16 51.6267 29.0133 47.36 30.72C43.2 32.4267 39.52 34.88 36.32 38.08C33.12 41.28 30.6133 45.0667 28.8 49.44C27.0933 53.8133 26.24 58.6667 26.24 64C26.24 69.2267 27.0933 74.08 28.8 78.56C30.6133 82.9333 33.0667 86.72 36.16 89.92C39.36 93.12 43.0933 95.5733 47.36 97.28C51.6267 98.9867 56.2667 99.84 61.28 99.84ZM178.84 121.92C169.88 121.92 161.293 120.747 153.08 118.4C144.867 115.947 138.253 112.8 133.24 108.96L142.04 89.44C146.84 92.8533 152.493 95.68 159 97.92C165.613 100.053 172.28 101.12 179 101.12C184.12 101.12 188.227 100.64 191.32 99.68C194.52 98.6133 196.867 97.1733 198.36 95.36C199.853 93.5467 200.6 91.4667 200.6 89.12C200.6 86.1333 199.427 83.7867 197.08 82.08C194.733 80.2667 191.64 78.8267 187.8 77.76C183.96 76.5867 179.693 75.52 175 74.56C170.413 73.4933 165.773 72.2133 161.08 70.72C156.493 69.2267 152.28 67.3067 148.44 64.96C144.6 62.6133 141.453 59.52 139 55.68C136.653 51.84 135.48 46.9333 135.48 40.96C135.48 34.56 137.187 28.7467 140.6 23.52C144.12 18.1867 149.347 13.9733 156.28 10.88C163.32 7.68 172.12 6.08 182.68 6.08C189.72 6.08 196.653 6.93333 203.48 8.63999C210.307 10.24 216.333 12.6933 221.56 16L213.56 35.68C208.333 32.6933 203.107 30.5067 197.88 29.12C192.653 27.6267 187.533 26.88 182.52 26.88C177.507 26.88 173.4 27.4667 170.2 28.64C167 29.8133 164.707 31.36 163.32 33.28C161.933 35.0933 161.24 37.2267 161.24 39.68C161.24 42.56 162.413 44.9067 164.76 46.72C167.107 48.4267 170.2 49.8133 174.04 50.88C177.88 51.9467 182.093 53.0133 186.68 54.08C191.373 55.1467 196.013 56.3733 200.6 57.76C205.293 59.1467 209.56 61.0133 213.4 63.36C217.24 65.7067 220.333 68.8 222.68 72.64C225.133 76.48 226.36 81.3333 226.36 87.2C226.36 93.4933 224.6 99.2533 221.08 104.48C217.56 109.707 212.28 113.92 205.24 117.12C198.307 120.32 189.507 121.92 178.84 121.92ZM289.384 120V7.99999H337.864C347.89 7.99999 356.53 9.65333 363.784 12.96C371.037 16.16 376.637 20.8 380.584 26.88C384.53 32.96 386.504 40.2133 386.504 48.64C386.504 56.96 384.53 64.16 380.584 70.24C376.637 76.32 371.037 81.0133 363.784 84.32C356.53 87.52 347.89 89.12 337.864 89.12H303.784L315.304 77.44V120H289.384ZM315.304 80.32L303.784 68H336.424C344.424 68 350.397 66.2933 354.344 62.88C358.29 59.4667 360.264 54.72 360.264 48.64C360.264 42.4533 358.29 37.6533 354.344 34.24C350.397 30.8267 344.424 29.12 336.424 29.12H303.784L315.304 16.8V80.32ZM404.811 120V1.27999H429.771V120H404.811ZM505.736 120V103.2L504.136 99.52V69.44C504.136 64.1067 502.483 59.9467 499.176 56.96C495.976 53.9733 491.016 52.48 484.296 52.48C479.71 52.48 475.176 53.2267 470.696 54.72C466.323 56.1067 462.59 58.0267 459.496 60.48L450.536 43.04C455.23 39.7333 460.883 37.1733 467.496 35.36C474.11 33.5467 480.83 32.64 487.656 32.64C500.776 32.64 510.963 35.7333 518.216 41.92C525.47 48.1067 529.096 57.76 529.096 70.88V120H505.736ZM479.496 121.28C472.776 121.28 467.016 120.16 462.216 117.92C457.416 115.573 453.736 112.427 451.176 108.48C448.616 104.533 447.336 100.107 447.336 95.2C447.336 90.08 448.563 85.6 451.016 81.76C453.576 77.92 457.576 74.9333 463.016 72.8C468.456 70.56 475.55 69.44 484.296 69.44H507.176V84H487.016C481.15 84 477.096 84.96 474.856 86.88C472.723 88.8 471.656 91.2 471.656 94.08C471.656 97.28 472.883 99.84 475.336 101.76C477.896 103.573 481.363 104.48 485.736 104.48C489.896 104.48 493.63 103.52 496.936 101.6C500.243 99.5733 502.643 96.64 504.136 92.8L507.976 104.32C506.163 109.867 502.856 114.08 498.056 116.96C493.256 119.84 487.07 121.28 479.496 121.28ZM586.886 121.28C576.753 121.28 568.86 118.72 563.206 113.6C557.553 108.373 554.726 100.64 554.726 90.4V14.88H579.686V90.08C579.686 93.7067 580.646 96.5333 582.566 98.56C584.486 100.48 587.1 101.44 590.406 101.44C594.353 101.44 597.713 100.373 600.486 98.24L607.206 115.84C604.646 117.653 601.553 119.04 597.926 120C594.406 120.853 590.726 121.28 586.886 121.28ZM541.446 55.04V35.84H601.126V55.04H541.446ZM624.258 120V32C624.258 22.2933 627.138 14.56 632.898 8.79999C638.658 2.93332 646.871 -9.53674e-06 657.538 -9.53674e-06C661.164 -9.53674e-06 664.631 0.373325 667.938 1.12C671.351 1.86666 674.231 3.03999 676.578 4.64L670.018 22.72C668.631 21.76 667.084 21.0133 665.378 20.48C663.671 19.9467 661.858 19.68 659.938 19.68C656.311 19.68 653.484 20.7467 651.458 22.88C649.538 24.9067 648.578 28 648.578 32.16V40.16L649.218 50.88V120H624.258ZM610.978 55.04V35.84H670.658V55.04H610.978ZM722.959 121.28C713.785 121.28 705.625 119.36 698.479 115.52C691.439 111.68 685.839 106.453 681.679 99.84C677.625 93.12 675.599 85.4933 675.599 76.96C675.599 68.32 677.625 60.6933 681.679 54.08C685.839 47.36 691.439 42.1333 698.479 38.4C705.625 34.56 713.785 32.64 722.959 32.64C732.025 32.64 740.132 34.56 747.279 38.4C754.425 42.1333 760.025 47.3067 764.079 53.92C768.132 60.5333 770.159 68.2133 770.159 76.96C770.159 85.4933 768.132 93.12 764.079 99.84C760.025 106.453 754.425 111.68 747.279 115.52C740.132 119.36 732.025 121.28 722.959 121.28ZM722.959 100.8C727.119 100.8 730.852 99.84 734.159 97.92C737.465 96 740.079 93.28 741.999 89.76C743.919 86.1333 744.879 81.8667 744.879 76.96C744.879 71.9467 743.919 67.68 741.999 64.16C740.079 60.64 737.465 57.92 734.159 56C730.852 54.08 727.119 53.12 722.959 53.12C718.799 53.12 715.065 54.08 711.759 56C708.452 57.92 705.785 60.64 703.759 64.16C701.839 67.68 700.879 71.9467 700.879 76.96C700.879 81.8667 701.839 86.1333 703.759 89.76C705.785 93.28 708.452 96 711.759 97.92C715.065 99.84 718.799 100.8 722.959 100.8ZM786.843 120V33.92H810.683V58.24L807.323 51.2C809.883 45.12 813.989 40.5333 819.643 37.44C825.296 34.24 832.176 32.64 840.283 32.64V55.68C839.216 55.5733 838.256 55.52 837.403 55.52C836.549 55.4133 835.643 55.36 834.683 55.36C827.856 55.36 822.309 57.3333 818.043 61.28C813.883 65.12 811.803 71.1467 811.803 79.36V120H786.843ZM965.52 32.64C972.347 32.64 978.373 34.0267 983.6 36.8C988.933 39.4667 993.093 43.6267 996.08 49.28C999.173 54.8267 1000.72 61.9733 1000.72 70.72V120H975.76V74.56C975.76 67.6267 974.32 62.5067 971.44 59.2C968.56 55.8933 964.507 54.24 959.28 54.24C955.653 54.24 952.4 55.0933 949.52 56.8C946.64 58.4 944.4 60.8533 942.8 64.16C941.2 67.4667 940.4 71.68 940.4 76.8V120H915.44V74.56C915.44 67.6267 914 62.5067 911.12 59.2C908.347 55.8933 904.347 54.24 899.12 54.24C895.493 54.24 892.24 55.0933 889.36 56.8C886.48 58.4 884.24 60.8533 882.64 64.16C881.04 67.4667 880.24 71.68 880.24 76.8V120H855.28V33.92H879.12V57.44L874.64 50.56C877.627 44.6933 881.84 40.2667 887.28 37.28C892.827 34.1867 899.12 32.64 906.16 32.64C914.053 32.64 920.933 34.6667 926.8 38.72C932.773 42.6667 936.72 48.7467 938.64 56.96L929.84 54.56C932.72 47.84 937.307 42.5067 943.6 38.56C950 34.6133 957.307 32.64 965.52 32.64Z" fill="url(#paint0_linear_2_17)"/>
<defs>
<linearGradient id="paint0_linear_2_17" x1="1011.67" y1="62.5" x2="-6.33374" y2="62.5" gradientUnits="userSpaceOnUse">
<stop stop-color="#CBB6C8"/>
<stop offset="0.5" stop-color="#8F86F6"/>
<stop offset="1" stop-color="#E8C48F"/>
</linearGradient>
</defs>
</svg>
