<svg width="712" height="311" viewBox="0 0 712 311" fill="none" xmlns="http://www.w3.org/2000/svg">
<path d="M303.619 115.84C294.765 115.84 286.552 114.4 278.979 111.52C271.512 108.64 265.005 104.587 259.459 99.36C254.019 94.1333 249.752 88 246.659 80.96C243.672 73.92 242.179 66.24 242.179 57.92C242.179 49.6 243.672 41.92 246.659 34.88C249.752 27.84 254.072 21.7066 259.619 16.48C265.165 11.2533 271.672 7.19997 279.139 4.31997C286.605 1.43998 294.712 -1.90735e-05 303.459 -1.90735e-05C312.312 -1.90735e-05 320.419 1.43998 327.779 4.31997C335.245 7.19997 341.699 11.2533 347.139 16.48C352.685 21.7066 357.005 27.84 360.099 34.88C363.192 41.8133 364.739 49.4933 364.739 57.92C364.739 66.24 363.192 73.9733 360.099 81.12C357.005 88.16 352.685 94.2933 347.139 99.52C341.699 104.64 335.245 108.64 327.779 111.52C320.419 114.4 312.365 115.84 303.619 115.84ZM303.459 93.76C308.472 93.76 313.059 92.9066 317.219 91.2C321.485 89.4933 325.219 87.04 328.419 83.84C331.619 80.64 334.072 76.8533 335.779 72.48C337.592 68.1066 338.499 63.2533 338.499 57.92C338.499 52.5866 337.592 47.7333 335.779 43.36C334.072 38.9866 331.619 35.2 328.419 32C325.325 28.8 321.645 26.3466 317.379 24.64C313.112 22.9333 308.472 22.08 303.459 22.08C298.445 22.08 293.805 22.9333 289.539 24.64C285.379 26.3466 281.699 28.8 278.499 32C275.299 35.2 272.792 38.9866 270.979 43.36C269.272 47.7333 268.419 52.5866 268.419 57.92C268.419 63.1466 269.272 68 270.979 72.48C272.792 76.8533 275.245 80.64 278.339 83.84C281.539 87.04 285.272 89.4933 289.539 91.2C293.805 92.9066 298.445 93.76 303.459 93.76ZM421.019 115.84C412.059 115.84 403.472 114.667 395.259 112.32C387.045 109.867 380.432 106.72 375.419 102.88L384.219 83.36C389.019 86.7733 394.672 89.6 401.179 91.84C407.792 93.9733 414.459 95.04 421.179 95.04C426.299 95.04 430.405 94.56 433.499 93.6C436.699 92.5333 439.045 91.0933 440.539 89.28C442.032 87.4666 442.779 85.3866 442.779 83.04C442.779 80.0533 441.605 77.7066 439.259 76C436.912 74.1866 433.819 72.7466 429.979 71.68C426.139 70.5066 421.872 69.44 417.179 68.48C412.592 67.4133 407.952 66.1333 403.259 64.64C398.672 63.1466 394.459 61.2266 390.619 58.88C386.779 56.5333 383.632 53.44 381.179 49.6C378.832 45.76 377.659 40.8533 377.659 34.88C377.659 28.48 379.365 22.6666 382.779 17.44C386.299 12.1066 391.525 7.89331 398.459 4.79998C405.499 1.59998 414.299 -1.90735e-05 424.859 -1.90735e-05C431.899 -1.90735e-05 438.832 0.853313 445.659 2.55998C452.485 4.15998 458.512 6.61331 463.739 9.91998L455.739 29.6C450.512 26.6133 445.285 24.4266 440.059 23.04C434.832 21.5466 429.712 20.8 424.699 20.8C419.685 20.8 415.579 21.3866 412.379 22.56C409.179 23.7333 406.885 25.28 405.499 27.2C404.112 29.0133 403.419 31.1466 403.419 33.6C403.419 36.48 404.592 38.8266 406.939 40.64C409.285 42.3466 412.379 43.7333 416.219 44.8C420.059 45.8666 424.272 46.9333 428.859 48C433.552 49.0666 438.192 50.2933 442.779 51.68C447.472 53.0666 451.739 54.9333 455.579 57.28C459.419 59.6266 462.512 62.72 464.859 66.56C467.312 70.4 468.539 75.2533 468.539 81.12C468.539 87.4133 466.779 93.1733 463.259 98.4C459.739 103.627 454.459 107.84 447.419 111.04C440.485 114.24 431.685 115.84 421.019 115.84ZM1.90735e-06 308.92V196.92H48.48C58.5067 196.92 67.1467 198.573 74.4 201.88C81.6533 205.08 87.2533 209.72 91.2 215.8C95.1467 221.88 97.12 229.133 97.12 237.56C97.12 245.88 95.1467 253.08 91.2 259.16C87.2533 265.24 81.6533 269.933 74.4 273.24C67.1467 276.44 58.5067 278.04 48.48 278.04H14.4L25.92 266.36V308.92H1.90735e-06ZM25.92 269.24L14.4 256.92H47.04C55.04 256.92 61.0133 255.213 64.96 251.8C68.9067 248.387 70.88 243.64 70.88 237.56C70.88 231.373 68.9067 226.573 64.96 223.16C61.0133 219.747 55.04 218.04 47.04 218.04H14.4L25.92 205.72V269.24ZM115.428 308.92V190.2H140.388V308.92H115.428ZM216.353 308.92V292.12L214.753 288.44V258.36C214.753 253.027 213.099 248.867 209.793 245.88C206.593 242.893 201.633 241.4 194.913 241.4C190.326 241.4 185.793 242.147 181.313 243.64C176.939 245.027 173.206 246.947 170.113 249.4L161.153 231.96C165.846 228.653 171.499 226.093 178.113 224.28C184.726 222.467 191.446 221.56 198.273 221.56C211.393 221.56 221.579 224.653 228.833 230.84C236.086 237.027 239.713 246.68 239.713 259.8V308.92H216.353ZM190.113 310.2C183.393 310.2 177.633 309.08 172.833 306.84C168.033 304.493 164.353 301.347 161.793 297.4C159.233 293.453 157.953 289.027 157.953 284.12C157.953 279 159.179 274.52 161.633 270.68C164.193 266.84 168.193 263.853 173.633 261.72C179.073 259.48 186.166 258.36 194.913 258.36H217.793V272.92H197.633C191.766 272.92 187.713 273.88 185.473 275.8C183.339 277.72 182.273 280.12 182.273 283C182.273 286.2 183.499 288.76 185.953 290.68C188.513 292.493 191.979 293.4 196.353 293.4C200.513 293.4 204.246 292.44 207.553 290.52C210.859 288.493 213.259 285.56 214.753 281.72L218.593 293.24C216.779 298.787 213.473 303 208.673 305.88C203.873 308.76 197.686 310.2 190.113 310.2ZM297.503 310.2C287.369 310.2 279.476 307.64 273.823 302.52C268.169 297.293 265.343 289.56 265.343 279.32V203.8H290.303V279C290.303 282.627 291.263 285.453 293.183 287.48C295.103 289.4 297.716 290.36 301.023 290.36C304.969 290.36 308.329 289.293 311.103 287.16L317.823 304.76C315.263 306.573 312.169 307.96 308.543 308.92C305.023 309.773 301.343 310.2 297.503 310.2ZM252.063 243.96V224.76H311.743V243.96H252.063ZM334.874 308.92V220.92C334.874 211.213 337.754 203.48 343.514 197.72C349.274 191.853 357.487 188.92 368.154 188.92C371.78 188.92 375.247 189.293 378.554 190.04C381.967 190.787 384.847 191.96 387.194 193.56L380.634 211.64C379.247 210.68 377.7 209.933 375.994 209.4C374.287 208.867 372.474 208.6 370.554 208.6C366.927 208.6 364.1 209.667 362.074 211.8C360.154 213.827 359.194 216.92 359.194 221.08V229.08L359.834 239.8V308.92H334.874ZM321.594 243.96V224.76H381.274V243.96H321.594ZM433.575 310.2C424.402 310.2 416.242 308.28 409.095 304.44C402.055 300.6 396.455 295.373 392.295 288.76C388.242 282.04 386.215 274.413 386.215 265.88C386.215 257.24 388.242 249.613 392.295 243C396.455 236.28 402.055 231.053 409.095 227.32C416.242 223.48 424.402 221.56 433.575 221.56C442.642 221.56 450.748 223.48 457.895 227.32C465.042 231.053 470.642 236.227 474.695 242.84C478.748 249.453 480.775 257.133 480.775 265.88C480.775 274.413 478.748 282.04 474.695 288.76C470.642 295.373 465.042 300.6 457.895 304.44C450.748 308.28 442.642 310.2 433.575 310.2ZM433.575 289.72C437.735 289.72 441.468 288.76 444.775 286.84C448.082 284.92 450.695 282.2 452.615 278.68C454.535 275.053 455.495 270.787 455.495 265.88C455.495 260.867 454.535 256.6 452.615 253.08C450.695 249.56 448.082 246.84 444.775 244.92C441.468 243 437.735 242.04 433.575 242.04C429.415 242.04 425.682 243 422.375 244.92C419.068 246.84 416.402 249.56 414.375 253.08C412.455 256.6 411.495 260.867 411.495 265.88C411.495 270.787 412.455 275.053 414.375 278.68C416.402 282.2 419.068 284.92 422.375 286.84C425.682 288.76 429.415 289.72 433.575 289.72ZM497.459 308.92V222.84H521.299V247.16L517.939 240.12C520.499 234.04 524.605 229.453 530.259 226.36C535.912 223.16 542.792 221.56 550.899 221.56V244.6C549.832 244.493 548.872 244.44 548.019 244.44C547.165 244.333 546.259 244.28 545.299 244.28C538.472 244.28 532.925 246.253 528.659 250.2C524.499 254.04 522.419 260.067 522.419 268.28V308.92H497.459ZM676.136 221.56C682.963 221.56 688.99 222.947 694.216 225.72C699.55 228.387 703.71 232.547 706.696 238.2C709.79 243.747 711.336 250.893 711.336 259.64V308.92H686.376V263.48C686.376 256.547 684.936 251.427 682.056 248.12C679.176 244.813 675.123 243.16 669.896 243.16C666.27 243.16 663.016 244.013 660.136 245.72C657.256 247.32 655.016 249.773 653.416 253.08C651.816 256.387 651.016 260.6 651.016 265.72V308.92H626.056V263.48C626.056 256.547 624.616 251.427 621.736 248.12C618.963 244.813 614.963 243.16 609.736 243.16C606.11 243.16 602.856 244.013 599.976 245.72C597.096 247.32 594.856 249.773 593.256 253.08C591.656 256.387 590.856 260.6 590.856 265.72V308.92H565.896V222.84H589.736V246.36L585.256 239.48C588.243 233.613 592.456 229.187 597.896 226.2C603.443 223.107 609.736 221.56 616.776 221.56C624.67 221.56 631.55 223.587 637.416 227.64C643.39 231.587 647.336 237.667 649.256 245.88L640.456 243.48C643.336 236.76 647.923 231.427 654.216 227.48C660.616 223.533 667.923 221.56 676.136 221.56Z" fill="url(#paint0_linear_2_17)"/>
<defs>
<linearGradient id="paint0_linear_2_17" x1="722.454" y1="153.92" x2="-13.5456" y2="153.92" gradientUnits="userSpaceOnUse">
<stop stop-color="#CBB6C8"/>
<stop offset="0.5" stop-color="#8F86F6"/>
<stop offset="1" stop-color="#E8C48F"/>
</linearGradient>
</defs>
</svg>
