<svg width="30" height="30" viewBox="0 0 30 30" fill="none" xmlns="http://www.w3.org/2000/svg">
<g clip-path="url(#clip0_40_3664)">
<g clip-path="url(#clip1_40_3664)">
<g clip-path="url(#clip2_40_3664)">
<path d="M19.0564 7.72412H10.9443V22.3018H19.0564V7.72412Z" fill="#FF5F00"/>
<path d="M11.4592 15.0132C11.4579 13.6092 11.7761 12.2234 12.3896 10.9606C13.003 9.6978 13.8958 8.59111 15.0002 7.72433C13.6325 6.64931 11.99 5.98078 10.2604 5.79514C8.53071 5.60949 6.78373 5.91423 5.21909 6.67451C3.65445 7.4348 2.33527 8.61996 1.41235 10.0945C0.489432 11.5691 0 13.2736 0 15.0132C0 16.7527 0.489432 18.4572 1.41235 19.9318C2.33527 21.4064 3.65445 22.5915 5.21909 23.3518C6.78373 24.1121 8.53071 24.4169 10.2604 24.2312C11.99 24.0456 13.6325 23.377 15.0002 22.302C13.8958 21.4352 13.003 20.3285 12.3896 19.0657C11.7761 17.8029 11.4579 16.4171 11.4592 15.0132Z" fill="#EB001B"/>
<path d="M30.0002 15.0132C30.0003 16.7527 29.5109 18.4572 28.588 19.9318C27.6652 21.4064 26.346 22.5915 24.7814 23.3518C23.2168 24.1121 21.4699 24.4168 19.7402 24.2312C18.0106 24.0456 16.3681 23.377 15.0005 22.302C16.1039 21.4344 16.996 20.3275 17.6094 19.0649C18.2227 17.8023 18.5414 16.4169 18.5414 15.0132C18.5414 13.6095 18.2227 12.2241 17.6094 10.9615C16.996 9.69885 16.1039 8.59198 15.0005 7.72432C16.3681 6.64931 18.0106 5.98078 19.7402 5.79513C21.4699 5.60949 23.2168 5.91423 24.7814 6.67453C26.346 7.43482 27.6652 8.61999 28.588 10.0946C29.5109 11.5691 30.0003 13.2736 30.0002 15.0132Z" fill="#F79E1B"/>
<path d="M29.1153 20.7578V20.4593H29.2357V20.3986H28.9292V20.4593H29.0496V20.7578H29.1153ZM29.7104 20.7578V20.3979H29.6164L29.5084 20.6455L29.4003 20.3979H29.3063V20.7578H29.3726V20.4865L29.4739 20.7204H29.5427L29.6441 20.4858V20.7578H29.7104Z" fill="#F79E1B"/>
</g>
</g>
</g>
<defs>
<clipPath id="clip0_40_3664">
<rect width="30" height="30" fill="white"/>
</clipPath>
<clipPath id="clip1_40_3664">
<rect width="30" height="30" fill="white"/>
</clipPath>
<clipPath id="clip2_40_3664">
<rect width="30" height="30" fill="white"/>
</clipPath>
</defs>
</svg>
