<svg width="61" height="30" viewBox="0 0 61 30" fill="none" xmlns="http://www.w3.org/2000/svg">
<g clip-path="url(#clip0_40_3671)">
<g clip-path="url(#clip1_40_3671)">
<path d="M27.2021 6.31794L23.5945 23.7267H19.2308L22.8388 6.31794H27.2021ZM45.5599 17.559L47.8565 11.0216L49.1782 17.559H45.5599ZM50.43 23.7267H54.4648L50.9399 6.31794H47.218C46.3793 6.31794 45.6722 6.81991 45.3592 7.594L38.8119 23.7267H43.3945L44.3042 21.1268H49.9016L50.43 23.7267ZM39.0391 18.0433C39.0581 13.4489 32.8856 13.1944 32.927 11.1415C32.9403 10.5177 33.5169 9.85326 34.7771 9.68332C35.4019 9.60031 37.1261 9.53297 39.0805 10.4625L39.8449 6.7694C38.7952 6.37746 37.4443 6 35.7634 6C31.4498 6 28.4153 8.36497 28.391 11.7542C28.3633 14.2606 30.5587 15.658 32.2092 16.4928C33.911 17.346 34.4812 17.893 34.4729 18.6553C34.4611 19.8233 33.1159 20.3406 31.8633 20.3601C29.6683 20.3954 28.396 19.7478 27.382 19.2599L26.5899 23.0763C27.6111 23.5587 29.4927 23.9785 31.4411 24C36.0271 24 39.0255 21.6628 39.0391 18.0433ZM20.9671 6.31794L13.897 23.7267H9.28522L5.80578 9.83329C5.59486 8.97892 5.41087 8.6649 4.76938 8.30389C3.72009 7.71578 1.98795 7.16565 0.464844 6.82343L0.568029 6.31794H7.99276C8.93849 6.31794 9.78938 6.96752 10.006 8.09206L11.844 18.1667L16.3829 6.31794H20.9671Z" fill="#405AD6"/>
</g>
</g>
<defs>
<clipPath id="clip0_40_3671">
<rect width="61" height="30" fill="white"/>
</clipPath>
<clipPath id="clip1_40_3671">
<rect width="61" height="30" fill="white"/>
</clipPath>
</defs>
</svg>
