<?xml version="1.0" standalone="no"?>
<!DOCTYPE svg PUBLIC "-//W3C//DTD SVG 20010904//EN"
  "http://www.w3.org/TR/2001/REC-SVG-20010904/DTD/svg10.dtd">
<svg version="1.0" xmlns="http://www.w3.org/2000/svg"
 width="700.000000pt" height="700.000000pt" viewBox="0 0 700.000000 700.000000"
 preserveAspectRatio="xMidYMid meet">
<metadata>
Created by potrace 1.14, written by Peter Selinger 2001-2017
</metadata>
<g transform="translate(0.000000,700.000000) scale(0.100000,-0.100000)"
fill="#000000" stroke="none">
<path d="M1315 6993 c-79 -10 -236 -48 -314 -75 -212 -75 -396 -192 -561 -358
-214 -213 -345 -453 -412 -751 l-23 -104 0 -2205 0 -2205 23 -104 c67 -298
198 -538 412 -751 213 -214 453 -345 751 -412 l104 -23 2205 0 2205 0 104 23
c298 67 538 198 751 412 214 213 345 453 412 751 l23 104 0 2205 0 2205 -23
104 c-67 298 -198 538 -412 751 -208 208 -431 333 -730 408 l-105 27 -2190 1
c-1204 1 -2203 -1 -2220 -3z m1009 -2955 c155 -252 284 -458 287 -458 3 0 133
207 288 460 l283 460 239 0 239 0 0 -1040 0 -1040 -240 0 -240 0 -2 601 -3
601 -266 -433 c-249 -408 -267 -434 -296 -437 -30 -3 -34 2 -288 417 -141 231
-263 428 -271 438 -11 15 -13 -70 -14 -584 l0 -603 -240 0 -240 0 0 1040 0
1040 242 -2 241 -3 281 -457z m2437 -126 c79 -28 111 -46 174 -97 l55 -45 0
65 0 65 225 0 225 0 0 -740 0 -740 -225 0 -225 0 0 66 0 65 -57 -44 c-118 -91
-224 -127 -384 -127 -355 0 -642 257 -709 636 -16 89 -8 285 15 369 24 90 97
232 154 301 92 111 230 200 371 239 80 22 305 15 381 -13z"/>
<path d="M4563 3519 c-155 -26 -255 -129 -284 -293 -29 -167 49 -327 191 -395
49 -23 67 -26 165 -26 97 0 116 3 160 25 70 34 139 108 166 177 18 46 23 79
23 158 1 87 -2 107 -25 155 -71 152 -223 228 -396 199z"/>
</g>
</svg>
